<svg xmlns="http://www.w3.org/2000/svg" viewBox="0 0 64 64" role="img" aria-labelledby="title">
  <title>giwon-home</title>
  <defs>
    <linearGradient id="bg" x1="0%" y1="0%" x2="100%" y2="100%">
      <stop offset="0%" stop-color="#0f766e" />
      <stop offset="100%" stop-color="#0f172a" />
    </linearGradient>
  </defs>
  <rect width="64" height="64" rx="18" fill="url(#bg)" />
  <path
    d="M17 32c0-10.1 6.7-17 16.2-17 6.2 0 10.6 2.4 13.5 6.4l-6.2 4.2c-1.5-2.1-3.8-3.4-7-3.4-5.1 0-8.7 3.9-8.7 9.8 0 6 3.5 9.9 8.8 9.9 3.7 0 6.4-1.8 7.4-4.9h-8.2v-6.1h15.8c.1.7.1 1.5.1 2.2 0 10-6.1 16.9-15.7 16.9C23.7 49.9 17 43 17 32Z"
    fill="#f8fafc"
  />
</svg>
